<mxfile host="app.diagrams.net" modified="2022-05-02T11:04:43.132Z" agent="5.0 (Windows NT 10.0; Win64; x64) AppleWebKit/537.36 (KHTML, like Gecko) Chrome/101.0.4951.41 Safari/537.36 Edg/101.0.1210.32" etag="jwp4wZmWEJOAXFOVa9M8" version="17.5.0" type="github">
  <diagram id="4kPlA3bA-O8lGR9gabR4" name="Page-1">
    <mxGraphModel dx="1038" dy="579" grid="1" gridSize="10" guides="1" tooltips="1" connect="1" arrows="1" fold="1" page="1" pageScale="1" pageWidth="850" pageHeight="1100" math="0" shadow="0">
      <root>
        <mxCell id="0" />
        <mxCell id="1" parent="0" />
        <mxCell id="WWKZQpPVSsgoNFgP7Xzk-5" value="" style="edgeStyle=orthogonalEdgeStyle;rounded=0;orthogonalLoop=1;jettySize=auto;html=1;" edge="1" parent="1" source="WWKZQpPVSsgoNFgP7Xzk-1" target="WWKZQpPVSsgoNFgP7Xzk-4">
          <mxGeometry relative="1" as="geometry" />
        </mxCell>
        <mxCell id="WWKZQpPVSsgoNFgP7Xzk-1" value="start" style="rounded=1;whiteSpace=wrap;html=1;" vertex="1" parent="1">
          <mxGeometry x="80" y="30" width="90" height="30" as="geometry" />
        </mxCell>
        <mxCell id="WWKZQpPVSsgoNFgP7Xzk-7" value="" style="edgeStyle=orthogonalEdgeStyle;rounded=0;orthogonalLoop=1;jettySize=auto;html=1;" edge="1" parent="1" source="WWKZQpPVSsgoNFgP7Xzk-4" target="WWKZQpPVSsgoNFgP7Xzk-6">
          <mxGeometry relative="1" as="geometry" />
        </mxCell>
        <mxCell id="WWKZQpPVSsgoNFgP7Xzk-4" value="IF pop&amp;nbsp; gamestop is false" style="rhombus;whiteSpace=wrap;html=1;" vertex="1" parent="1">
          <mxGeometry x="85" y="100" width="80" height="80" as="geometry" />
        </mxCell>
        <mxCell id="WWKZQpPVSsgoNFgP7Xzk-9" value="" style="edgeStyle=orthogonalEdgeStyle;rounded=0;orthogonalLoop=1;jettySize=auto;html=1;entryX=0;entryY=0.5;entryDx=0;entryDy=0;" edge="1" parent="1" source="WWKZQpPVSsgoNFgP7Xzk-6" target="WWKZQpPVSsgoNFgP7Xzk-8">
          <mxGeometry relative="1" as="geometry" />
        </mxCell>
        <mxCell id="WWKZQpPVSsgoNFgP7Xzk-23" value="yes" style="edgeLabel;html=1;align=center;verticalAlign=middle;resizable=0;points=[];" vertex="1" connectable="0" parent="WWKZQpPVSsgoNFgP7Xzk-9">
          <mxGeometry x="-0.7965" y="3" relative="1" as="geometry">
            <mxPoint as="offset" />
          </mxGeometry>
        </mxCell>
        <mxCell id="WWKZQpPVSsgoNFgP7Xzk-25" value="" style="edgeStyle=orthogonalEdgeStyle;rounded=0;orthogonalLoop=1;jettySize=auto;html=1;" edge="1" parent="1" source="WWKZQpPVSsgoNFgP7Xzk-6" target="WWKZQpPVSsgoNFgP7Xzk-24">
          <mxGeometry relative="1" as="geometry" />
        </mxCell>
        <mxCell id="WWKZQpPVSsgoNFgP7Xzk-26" value="no" style="edgeLabel;html=1;align=center;verticalAlign=middle;resizable=0;points=[];" vertex="1" connectable="0" parent="WWKZQpPVSsgoNFgP7Xzk-25">
          <mxGeometry x="0.1048" y="3" relative="1" as="geometry">
            <mxPoint as="offset" />
          </mxGeometry>
        </mxCell>
        <mxCell id="WWKZQpPVSsgoNFgP7Xzk-6" value="IF pop is leader and reached point is slab" style="rhombus;whiteSpace=wrap;html=1;" vertex="1" parent="1">
          <mxGeometry x="85" y="250" width="80" height="80" as="geometry" />
        </mxCell>
        <mxCell id="WWKZQpPVSsgoNFgP7Xzk-13" value="" style="edgeStyle=orthogonalEdgeStyle;rounded=0;orthogonalLoop=1;jettySize=auto;html=1;" edge="1" parent="1" source="WWKZQpPVSsgoNFgP7Xzk-8" target="WWKZQpPVSsgoNFgP7Xzk-10">
          <mxGeometry relative="1" as="geometry" />
        </mxCell>
        <mxCell id="WWKZQpPVSsgoNFgP7Xzk-8" value="remove the path instruction" style="whiteSpace=wrap;html=1;" vertex="1" parent="1">
          <mxGeometry x="240" y="50" width="120" height="60" as="geometry" />
        </mxCell>
        <mxCell id="WWKZQpPVSsgoNFgP7Xzk-16" value="" style="edgeStyle=orthogonalEdgeStyle;rounded=0;orthogonalLoop=1;jettySize=auto;html=1;" edge="1" parent="1" source="WWKZQpPVSsgoNFgP7Xzk-10" target="WWKZQpPVSsgoNFgP7Xzk-14">
          <mxGeometry relative="1" as="geometry" />
        </mxCell>
        <mxCell id="WWKZQpPVSsgoNFgP7Xzk-10" value="call&amp;nbsp;stopPopAtSlab for pop stop 4 sec" style="rounded=1;whiteSpace=wrap;html=1;fillColor=#f8cecc;gradientColor=#ea6b66;strokeColor=#b85450;" vertex="1" parent="1">
          <mxGeometry x="240" y="150" width="120" height="60" as="geometry" />
        </mxCell>
        <mxCell id="WWKZQpPVSsgoNFgP7Xzk-18" value="yes" style="edgeStyle=orthogonalEdgeStyle;rounded=0;orthogonalLoop=1;jettySize=auto;html=1;" edge="1" parent="1" source="WWKZQpPVSsgoNFgP7Xzk-14" target="WWKZQpPVSsgoNFgP7Xzk-17">
          <mxGeometry relative="1" as="geometry">
            <Array as="points">
              <mxPoint x="370" y="280" />
              <mxPoint x="370" y="280" />
            </Array>
          </mxGeometry>
        </mxCell>
        <mxCell id="WWKZQpPVSsgoNFgP7Xzk-20" value="no" style="edgeStyle=orthogonalEdgeStyle;rounded=0;orthogonalLoop=1;jettySize=auto;html=1;" edge="1" parent="1" source="WWKZQpPVSsgoNFgP7Xzk-14" target="WWKZQpPVSsgoNFgP7Xzk-19">
          <mxGeometry relative="1" as="geometry" />
        </mxCell>
        <mxCell id="WWKZQpPVSsgoNFgP7Xzk-14" value="IF path is empty" style="rhombus;whiteSpace=wrap;html=1;" vertex="1" parent="1">
          <mxGeometry x="260" y="240" width="80" height="80" as="geometry" />
        </mxCell>
        <mxCell id="WWKZQpPVSsgoNFgP7Xzk-17" value="set pop stop at slab flag as false" style="whiteSpace=wrap;html=1;" vertex="1" parent="1">
          <mxGeometry x="400" y="250" width="120" height="60" as="geometry" />
        </mxCell>
        <mxCell id="WWKZQpPVSsgoNFgP7Xzk-22" value="" style="edgeStyle=orthogonalEdgeStyle;rounded=0;orthogonalLoop=1;jettySize=auto;html=1;" edge="1" parent="1" source="WWKZQpPVSsgoNFgP7Xzk-19" target="WWKZQpPVSsgoNFgP7Xzk-21">
          <mxGeometry relative="1" as="geometry" />
        </mxCell>
        <mxCell id="WWKZQpPVSsgoNFgP7Xzk-19" value="ELSE" style="rhombus;whiteSpace=wrap;html=1;" vertex="1" parent="1">
          <mxGeometry x="260" y="360" width="80" height="80" as="geometry" />
        </mxCell>
        <mxCell id="WWKZQpPVSsgoNFgP7Xzk-21" value="set pop next target from the path array" style="whiteSpace=wrap;html=1;" vertex="1" parent="1">
          <mxGeometry x="400" y="370" width="120" height="60" as="geometry" />
        </mxCell>
        <mxCell id="WWKZQpPVSsgoNFgP7Xzk-28" value="" style="edgeStyle=orthogonalEdgeStyle;rounded=0;orthogonalLoop=1;jettySize=auto;html=1;" edge="1" parent="1" source="WWKZQpPVSsgoNFgP7Xzk-24" target="WWKZQpPVSsgoNFgP7Xzk-27">
          <mxGeometry relative="1" as="geometry" />
        </mxCell>
        <mxCell id="WWKZQpPVSsgoNFgP7Xzk-24" value="ELSE" style="rhombus;whiteSpace=wrap;html=1;" vertex="1" parent="1">
          <mxGeometry x="85" y="480" width="80" height="80" as="geometry" />
        </mxCell>
        <mxCell id="WWKZQpPVSsgoNFgP7Xzk-27" value="IF&amp;nbsp;" style="rhombus;whiteSpace=wrap;html=1;" vertex="1" parent="1">
          <mxGeometry x="85" y="650" width="80" height="80" as="geometry" />
        </mxCell>
      </root>
    </mxGraphModel>
  </diagram>
</mxfile>
